<svg width="144" height="38" viewBox="0 0 144 38" fill="none" xmlns="http://www.w3.org/2000/svg">
<path d="M26.7535 2.26607C23.7361 5.37488 20.7187 8.47226 17.7013 11.5811C17.667 11.6039 17.6442 11.6268 17.6099 11.6611L11.038 18.233C10.4093 18.8616 10.4093 19.9017 11.038 20.5303L17.267 26.7594L9.59786 34.7943C8.40919 33.9828 7.27768 33.0456 6.15759 31.9141C-1.87731 23.8906 -2.15162 13.9698 5.94043 5.86635C12.3524 -0.545575 19.9186 -1.63137 26.7535 2.26607Z" fill="url(#paint0_linear_2285_8383)"/>
<path d="M32.1486 32.0624C25.7481 38.4515 18.2276 39.5944 11.4385 35.9256L14.1358 33.1025C16.2046 30.9652 18.2619 28.8393 20.3306 26.702L22.4108 24.6218L26.4911 20.5415C27.1197 19.9129 27.1197 18.8728 26.4911 18.2442L24.6166 16.3698L20.3077 12.0609L27.8969 4.11741L28.5598 3.43164C29.6799 4.22027 30.8 5.16892 31.8629 6.23186C39.8292 14.1753 40.1721 24.0275 32.1486 32.0624Z" fill="url(#paint1_linear_2285_8383)"/>
<path fill-rule="evenodd" clip-rule="evenodd" d="M102.488 27.8852H98.3609V9.44102L102.488 7.79883V27.8852ZM64.5371 22.3546C64.5371 26.0692 61.5654 28.2704 57.3831 28.2704C53.3383 28.2704 50.7518 26.3443 49.6787 23.5102L53.4759 21.309C54.1638 22.9049 55.3469 23.978 57.5207 23.978C59.6118 23.978 60.1346 23.1525 60.1346 22.4096C60.1346 21.2264 59.034 20.7587 56.1449 19.9607C53.2833 19.1628 50.4767 17.787 50.4767 14.0999C50.4767 10.3853 53.6134 8.23908 56.9428 8.23908C60.1071 8.23908 62.5835 9.75243 63.9868 12.5865L60.2722 14.7603C59.6118 13.3845 58.7038 12.5315 56.9428 12.5315C55.567 12.5315 54.8792 13.2194 54.8792 13.9898C54.8792 14.8703 55.3469 15.4757 58.3461 16.3837C61.2628 17.2642 64.5371 18.2823 64.5371 22.3546ZM79.825 24.7209C78.6419 26.8671 76.3031 28.2704 73.6065 28.2704C69.4242 28.2704 66.3149 25.1061 66.3149 21.0063C66.3149 16.9065 69.4242 13.7422 73.6065 13.7422C76.2755 13.7422 78.6419 15.1455 79.825 17.2642L76.2205 19.3554C75.7527 18.3923 74.7622 17.8145 73.5515 17.8145C71.763 17.8145 70.4422 19.1077 70.4422 21.0063C70.4422 22.9049 71.763 24.1981 73.5515 24.1981C74.7622 24.1981 75.7803 23.6203 76.2205 22.6572L79.825 24.7209ZM91.2055 14.1274V15.4206C90.2975 14.3751 88.9493 13.7422 87.1057 13.7422C83.5012 13.7422 80.5295 16.9065 80.5295 21.0063C80.5295 25.1061 83.5012 28.2704 87.1057 28.2704C88.9493 28.2704 90.2975 27.6376 91.2055 26.592V27.8852H95.3329V14.1274H91.2055ZM87.9312 24.3632C86.0326 24.3632 84.6568 23.07 84.6568 21.0063C84.6568 18.9426 86.0326 17.6494 87.9312 17.6494C89.8298 17.6494 91.2055 18.9426 91.2055 21.0063C91.2055 23.07 89.8298 24.3632 87.9312 24.3632ZM105.508 27.8852H109.636V7.79883L105.508 9.44102V27.8852ZM126.551 21.0063C126.551 25.1061 123.305 28.2704 119.26 28.2704C115.215 28.2704 111.968 25.1061 111.968 21.0063C111.968 16.9065 115.215 13.7422 119.26 13.7422C123.305 13.7422 126.551 16.9065 126.551 21.0063ZM137.113 13.7422C135.27 13.7422 133.921 14.3751 133.013 15.4206V14.1274H128.886V33.3883H133.013V26.592C133.921 27.6376 135.27 28.2704 137.113 28.2704C140.718 28.2704 143.689 25.1061 143.689 21.0063C143.689 16.9065 140.718 13.7422 137.113 13.7422ZM136.288 24.3632C134.389 24.3632 133.013 23.07 133.013 21.0063C133.013 18.9426 134.389 17.6494 136.288 17.6494C138.186 17.6494 139.562 18.9426 139.562 21.0063C139.562 23.07 138.186 24.3632 136.288 24.3632ZM119.234 24.6311C117.328 24.6311 115.777 23.0657 115.777 21.1414C115.777 19.2172 117.328 17.6518 119.234 17.6518C119.523 17.6518 119.812 17.6877 120.096 17.7594C120.154 17.7774 120.207 17.8177 120.234 17.8716L120.293 17.9887C120.703 18.7945 121.407 19.4112 122.26 19.7106C122.349 19.742 122.407 19.8227 122.407 19.9169V22.3615C122.407 22.4557 122.349 22.5364 122.26 22.5678C121.407 22.8673 120.702 23.4831 120.29 24.288L120.229 24.4068C120.203 24.4651 120.149 24.5055 120.092 24.519C119.807 24.5952 119.518 24.6311 119.234 24.6311Z" fill="black"/>
<defs>
<linearGradient id="paint0_linear_2285_8383" x1="21.9548" y1="-12.7739" x2="-29.1553" y2="98.8968" gradientUnits="userSpaceOnUse">
<stop stop-color="#00DECA"/>
<stop offset="0.37798" stop-color="#3A8AFA"/>
<stop offset="1" stop-color="#1A6AF4"/>
</linearGradient>
<linearGradient id="paint1_linear_2285_8383" x1="33.2393" y1="-9.25934" x2="-17.5568" y2="101.666" gradientUnits="userSpaceOnUse">
<stop stop-color="#00DECA"/>
<stop offset="0.37798" stop-color="#3A8AFA"/>
<stop offset="1" stop-color="#1A6AF4"/>
</linearGradient>
</defs>
</svg>
